<svg xmlns="http://www.w3.org/2000/svg" width="630" height="420" style="background:#fff" version="1.1" viewBox="0 0 630 420"><g id="Page-1" fill="none" fill-rule="evenodd" stroke="none" stroke-width="1"><g id="svg-copy-2" fill-rule="nonzero"><g id="Group" transform="translate(30 42)"><g id="no-image-found" fill="#F0F1F2"><path id="Shape" d="M110.484 331.558H67.342l-.09-27.01h.271c21.752 0 39.426-17.765 39.426-39.7 0-10.242-3.897-19.94-10.695-27.192 1.088-2.99 1.632-6.254 1.632-9.698 0-16.315-13.414-29.458-29.91-29.458-16.495 0-29.91 13.143-29.91 29.458 0 3.172.544 6.163 1.45 8.973-7.25 7.342-11.42 17.312-11.42 27.917 0 20.575 15.5 37.434 35.348 39.519l.091 29.186c0 .997.816 1.903 1.903 1.903h45.046c1.088 0 1.903-.816 1.903-1.903 0-1.088-.815-1.995-1.903-1.995ZM67.976 202.307c14.411 0 26.103 11.511 26.103 25.65 0 14.14-11.692 25.652-26.103 25.652-10.785 0-20.03-6.436-24.018-15.68.09-.092.272-.182.362-.363l-.906-.998a24.972 24.972 0 0 1-1.54-8.61c0-14.14 11.691-25.651 26.102-25.651Zm-36.073 62.54c0-9.063 3.354-17.492 9.155-24.018a30.022 30.022 0 0 0 26.918 16.587c11.601 0 21.571-6.436 26.556-15.953 5.529 6.435 8.61 14.684 8.61 23.385 0 19.85-15.951 35.893-35.619 35.893s-35.62-16.043-35.62-35.893ZM14.955 318.144c-7.795 0-14.049 6.435-14.049 14.411 0 1.088.816 1.904 1.904 1.904H27.1c1.087 0 1.903-.816 1.903-1.904 0-7.976-6.254-14.411-14.048-14.411ZM124.714 59.64l-1.27 1.542c-2.446 2.81-6.253 2.81-8.61 0-.725-.816-1.903-.907-2.628-.182-.816.725-.816 1.994-.181 2.81 3.897 4.623 10.332 4.623 14.32 0l1.269-1.54c2.447-2.81 6.254-2.81 8.61 0l1.088 1.268c3.897 4.623 10.332 4.623 14.32 0 2.447-2.81 6.254-2.81 8.61 0l.816.997c3.898 4.623 10.423 4.623 14.32 0 .726-.816.635-2.085-.18-2.81-.816-.725-1.995-.634-2.63.182-2.446 2.81-6.253 2.81-8.61 0l-.815-.997c-3.897-4.623-10.423-4.623-14.32 0-2.448 2.81-6.254 2.81-8.61 0l-1.088-1.27c-4.079-4.622-10.514-4.622-14.411 0ZM562.208 65.532l1.27-1.54c2.084-2.448 5.165-2.72 7.522-.998v-4.441c-3.535-1.36-7.523-.453-10.332 2.81l-1.27 1.54c-2.446 2.81-6.253 2.81-8.61 0-.725-.815-1.903-.906-2.628-.18-.816.724-.816 1.993-.181 2.81 3.806 4.622 10.332 4.622 14.23 0ZM570.003 329.836H549.52v-11.783c10.604-.997 18.852-10.06 18.852-21.028 0-4.895-1.632-9.517-4.623-13.233-.634-8.158-7.25-14.593-15.317-14.593-7.342 0-13.414 5.257-14.955 12.236-4.26 3.988-6.797 9.608-6.797 15.59 0 11.058 8.338 20.122 19.033 21.028v13.596c0 .997.816 1.904 1.903 1.904h22.387c.363 0 .725-.091.997-.272v-3.173c-.272-.181-.634-.272-.997-.272Zm-21.662-56.83c6.163 0 11.148 4.985 11.602 11.33l-.454.453c.182.18.363.362.454.543-.091 6.617-5.257 11.874-11.602 11.874-6.435 0-11.601-5.348-11.601-12.055 0-6.798 5.166-12.146 11.601-12.146Zm-.906 41.331c-9.426 0-17.04-7.795-17.04-17.312 0-3.444.998-6.617 2.72-9.427 1.178 7.523 7.522 13.324 15.226 13.324 6.889 0 12.69-4.622 14.683-10.967.997 2.175 1.45 4.532 1.45 7.07 0 9.517-7.613 17.312-17.04 17.312ZM21.118 108.858c-.816-.725-1.994-.635-2.628.181-2.448 2.81-6.254 2.81-8.61 0l-.817-.997c-2.447-2.81-5.8-3.897-8.972-3.263v4.079c2.084-.816 4.44-.182 6.163 1.813l.816.997c3.897 4.622 10.423 4.622 14.32 0 .544-.816.544-2.085-.272-2.81ZM211.089 96.984h50.665c.997 0 1.722-.816 1.722-1.813s-.725-1.813-1.722-1.813h-50.665c-.997 0-1.722.816-1.722 1.813s.725 1.813 1.722 1.813ZM263.385 172.215c0-.997-.816-1.813-1.903-1.813h-56.919c-1.088 0-1.903.816-1.903 1.813s.815 1.812 1.903 1.812h56.919c1.087 0 1.903-.815 1.903-1.812ZM204.563 106.773h56.919c1.087 0 1.903-.816 1.903-1.813s-.816-1.813-1.903-1.813h-56.919c-1.088 0-1.903.816-1.903 1.813s.815 1.813 1.903 1.813ZM273.446 69.067h26.827a10.947 10.947 0 0 1 10.967 10.967v68.342c0 1.088.907 2.085 1.994 1.995 1.088 0 1.813-.816 1.813-1.904V78.04c0-7.16-5.8-12.87-12.87-12.87h-28.55c-.725 0-1.45.362-1.813.906-.725 1.45.181 2.991 1.632 2.991ZM204.563 154.993h56.919c1.087 0 1.903-.816 1.903-1.813s-.816-1.812-1.903-1.812h-56.919c-1.088 0-1.903.815-1.903 1.812 0 .997.815 1.813 1.903 1.813ZM204.563 135.959h56.919c1.087 0 1.903-.816 1.903-1.813s-.816-1.813-1.903-1.813h-56.919c-1.088 0-1.903.816-1.903 1.813s.815 1.813 1.903 1.813ZM204.563 164.057h56.919c1.087 0 1.903-.816 1.903-1.813s-.816-1.812-1.903-1.812h-56.919c-1.088 0-1.903.815-1.903 1.812 0 .997.815 1.813 1.903 1.813ZM204.563 116.471h56.919c1.087 0 1.903-.815 1.903-1.812 0-.997-.816-1.813-1.903-1.813h-56.919c-1.088 0-1.903.816-1.903 1.813s.815 1.812 1.903 1.812ZM204.563 126.17h56.919c1.087 0 1.903-.816 1.903-1.813s-.816-1.813-1.903-1.813h-56.919c-1.088 0-1.903.816-1.903 1.813s.815 1.813 1.903 1.813ZM67.704 162.244h37.886c1.087 0 1.903-.815 1.903-1.812 0-.998-.816-1.813-1.903-1.813H67.704c-1.087 0-1.903.815-1.903 1.813 0 .997.816 1.812 1.903 1.812ZM136.496 98.887c0-1.087-.906-1.903-1.903-1.903h-9.698c-1.088 0-1.903.816-1.903 1.903v9.88h-8.973c-1.088 0-1.904.816-1.904 1.904v23.022c0 1.088.816 1.903 1.904 1.903 1.087 0 1.903-.815 1.903-1.903v-21.119h28.64v125.717c0 1.087.816 1.903 1.904 1.903s1.903-.816 1.903-1.903V110.67c0-1.088-.815-1.904-1.903-1.904h-9.97v-9.88Zm-3.897 9.88h-5.8v-7.976h5.8v7.976ZM67.704 174.3h37.886c1.087 0 1.903-.816 1.903-1.813 0-.998-.816-1.813-1.903-1.813H67.704c-1.087 0-1.903.815-1.903 1.813 0 .997.816 1.812 1.903 1.812ZM71.33 186.445h34.26c1.087 0 1.903-.816 1.903-1.813s-.816-1.813-1.903-1.813H71.33c-1.088 0-1.904.816-1.904 1.813s.816 1.813 1.904 1.813Z"/><path id="Shape" d="M119.094 250.164a2.012 2.012 0 0 0 1.994-1.994V145.113c0-1.087-.815-1.903-1.903-1.903H68.339c-9.426 0-17.04 7.614-17.04 17.04v30.999c0 1.088.907 2.085 1.994 1.994 1.088 0 1.813-.816 1.813-1.904v-29.185c0-8.34 6.798-15.137 15.136-15.137h47.04V248.26c0 1.088.815 1.903 1.812 1.903Z"/><path id="Shape" d="M86.738 198.5h18.852c1.087 0 1.903-.816 1.903-1.813s-.816-1.813-1.903-1.813H86.738c-1.088 0-1.904.816-1.904 1.813s.816 1.813 1.904 1.813ZM493.507 203.666h36.98c1.087 0 1.903-.815 1.903-1.812 0-.997-.816-1.813-1.904-1.813h-36.979c-1.087 0-1.903.816-1.903 1.813s.816 1.812 1.903 1.812ZM497.133 215.721h33.353c1.088 0 1.904-.815 1.904-1.812 0-.997-.816-1.813-1.904-1.813h-33.353c-1.088 0-1.904.816-1.904 1.813s.816 1.812 1.904 1.812Z"/><path id="Shape" d="M543.99 266.66a2.012 2.012 0 0 0 1.995-1.993v-82.391c0-1.088-.816-1.904-1.904-1.904h-49.94c-9.425 0-17.039 7.614-17.039 17.04v30.999c0 1.088.907 2.085 1.994 1.994 1.088 0 1.813-.816 1.813-1.903v-29.186c0-8.34 6.798-15.137 15.136-15.137h46.133v80.578c0 1.088.725 1.904 1.813 1.904Z"/><path id="Shape" d="M512.54 227.776h17.946c1.088 0 1.904-.815 1.904-1.812 0-.997-.816-1.813-1.904-1.813H512.54c-1.087 0-1.903.816-1.903 1.813s.816 1.812 1.903 1.812ZM466.317 128.617h-46.043c-1.087 0-1.903.816-1.903 1.813s.816 1.813 1.903 1.813h46.043c1.087 0 1.903-.816 1.903-1.813s-.816-1.813-1.903-1.813ZM466.317 116.29h-46.043c-1.087 0-1.903.816-1.903 1.813s.816 1.813 1.903 1.813h46.043c1.087 0 1.903-.816 1.903-1.813s-.816-1.813-1.903-1.813ZM466.317 140.853h-46.043c-1.087 0-1.903.816-1.903 1.813s.816 1.813 1.903 1.813h46.043c1.087 0 1.903-.816 1.903-1.813s-.816-1.813-1.903-1.813ZM466.317 153.18h-46.043c-1.087 0-1.903.816-1.903 1.813s.816 1.813 1.903 1.813h46.043c1.087 0 1.903-.816 1.903-1.813s-.816-1.813-1.903-1.813ZM466.317 103.963h-46.043c-1.087 0-1.903.816-1.903 1.813s.816 1.813 1.903 1.813h46.043c1.087 0 1.903-.816 1.903-1.813s-.816-1.813-1.903-1.813ZM261.482 189.436h-37.886c-1.087 0-1.903.816-1.903 1.813s.816 1.813 1.903 1.813h37.886c1.087 0 1.903-.816 1.903-1.813s-.816-1.813-1.903-1.813Z"/><path id="Shape" d="m477.555.634-70.514 73.6c-.271.362-.453.815-.453 1.269V245.36c0 1.087.907 2.084 1.994 1.994 1.088 0 1.813-.816 1.813-1.904V76.228l40.332-41.876c9.608-9.97 26.375-3.172 26.375 10.605v236.66c0 1.087.907 2.084 1.994 1.993 1.088 0 1.813-.815 1.813-1.903V1.903c0-1.722-2.175-2.537-3.354-1.269Z"/><path id="Shape" d="M467.223 67.073h-37.885c-1.088 0-1.904.816-1.904 1.813s.816 1.813 1.904 1.813h37.885c1.088 0 1.903-.816 1.903-1.813s-.815-1.813-1.903-1.813ZM466.317 91.636h-46.043c-1.087 0-1.903.816-1.903 1.813s.816 1.813 1.903 1.813h46.043c1.087 0 1.903-.816 1.903-1.813s-.816-1.813-1.903-1.813ZM466.317 79.4h-46.043c-1.087 0-1.903.816-1.903 1.813s.816 1.813 1.903 1.813h46.043c1.087 0 1.903-.816 1.903-1.813s-.816-1.813-1.903-1.813ZM466.317 177.653h-46.043c-1.087 0-1.903.816-1.903 1.813s.816 1.813 1.903 1.813h46.043c1.087 0 1.903-.816 1.903-1.813s-.816-1.813-1.903-1.813ZM372.963 183.545h-47.856c-1.087 0-1.903.815-1.903 1.812 0 .997.816 1.813 1.903 1.813h47.856c1.087 0 1.903-.816 1.903-1.813s-.816-1.812-1.903-1.812ZM372.963 194.874h-47.856c-1.087 0-1.903.816-1.903 1.813s.816 1.813 1.903 1.813h47.856c1.087 0 1.903-.816 1.903-1.813s-.816-1.813-1.903-1.813ZM372.963 172.215h-47.856c-1.087 0-1.903.815-1.903 1.812 0 .997.816 1.813 1.903 1.813h47.856c1.087 0 1.903-.816 1.903-1.813s-.816-1.812-1.903-1.812ZM262.388 179.466h-53.293c-1.088 0-1.904.816-1.904 1.813s.816 1.812 1.904 1.812h53.293c1.088 0 1.903-.815 1.903-1.812 0-.997-.815-1.813-1.903-1.813Z"/><path id="Shape" d="M273.264 78.856h-3.806c.18-.272.272-.634.272-.997V53.568c0-.997-.816-1.904-1.904-1.904h-24.38c-.998 0-1.904.816-1.904 1.904V77.95c0 .362.09.725.272.997h-29.91c-10.15 0-18.398 8.248-18.398 18.4V208.38c0 1.087.906 2.084 1.994 1.994 1.087 0 1.812-.816 1.812-1.904V99.16c0-9.065 7.342-16.497 16.496-16.497h57.462v114.75c0 1.087.907 2.084 1.994 1.993 1.088 0 1.813-.815 1.813-1.903V80.76c.09-1.088-.725-1.904-1.813-1.904Zm-28.187 0c.181-.272.272-.634.272-.997V65.623c0-5.71 4.622-10.242 10.332-10.242 5.71 0 10.332 4.622 10.332 10.242v12.145c0 .363.091.726.272.998-.09.09-21.208.09-21.208.09ZM466.317 189.708h-46.043c-1.087 0-1.903.816-1.903 1.813s.816 1.813 1.903 1.813h46.043c1.087 0 1.903-.816 1.903-1.813s-.816-1.813-1.903-1.813ZM466.317 201.854h-46.043c-1.087 0-1.903.815-1.903 1.812 0 .997.816 1.813 1.903 1.813h46.043c1.087 0 1.903-.816 1.903-1.813s-.816-1.812-1.903-1.812ZM466.317 213.909h-46.043c-1.087 0-1.903.815-1.903 1.812 0 .997.816 1.813 1.903 1.813h46.043c1.087 0 1.903-.816 1.903-1.813s-.816-1.812-1.903-1.812ZM381.301 48.855h-3.807c-8.972 0-16.223 7.25-16.223 16.224v69.067c0 1.088.906 2.085 1.994 1.994 1.087 0 1.812-.816 1.812-1.903V66.982c0-7.885 6.436-14.32 14.32-14.32 7.886 0 14.321 6.435 14.321 14.32V238.2c0 1.088.906 2.085 1.994 1.994 1.088 0 1.813-.816 1.813-1.903V65.079c0-8.973-7.251-16.224-16.224-16.224Z"/><path id="Shape" d="M382.026 153.18h-4.44v-8.067c0-1.087-.817-1.903-1.904-1.903H351.3c-.997 0-1.903.906-1.903 1.903v8.067H304.17c-1.088 0-1.904.816-1.904 1.904v52.842c0 1.088.816 1.904 1.904 1.904 1.087 0 1.903-.816 1.903-1.904v-50.939h73.958v82.21c0 1.088.816 1.903 1.904 1.903 1.087 0 1.903-.815 1.903-1.903v-84.113c.09-1.088-.725-1.904-1.813-1.904Zm-8.157 0h-20.574v-6.072h20.574v6.072Z"/></g><g id="Group-2" fill="#24272C" transform="translate(118 216)"><path id="Combined-Shape_2_" d="M284.514 97.317H93.45c-2.176 8.792-10.097 15.408-19.498 15.408a19.983 19.983 0 0 1-19.498-15.408H25.555c-9.575 0-17.409-7.312-17.409-16.365V50.92l13.58-3.307c21.064-5.136 41.433-12.623 60.757-22.11l16.19-8.01a73.2 73.2 0 0 1 32.207-7.485h48.919c16.103 0 31.684 5.31 44.132 14.972l28.812 19.934c3.917 2.786 8.443 4.527 13.317 5.223l44.916 5.571c22.544 2.35 33.425 22.023 35.514 41.174l.174.522h-23.241c-2.176 8.792-10.097 15.408-19.498 15.408-9.4 0-17.322-6.616-19.411-15.495Z" opacity=".1"/><path id="Shape" d="M98.715 53.677c-1.067 0-1.866.78-1.866 1.82 0 1.039.8 1.819 1.866 1.819h10.75c1.066 0 1.866-.78 1.866-1.82s-.8-1.82-1.866-1.82h-10.75Z" opacity=".5"/><path id="Shape" d="m352.922 97.567-.174-.436c-2.616-25.263-16.304-44.428-38.274-46.78l-46.295-6.185a28.644 28.644 0 0 1-12.903-5.4l-29.73-21.953C212.468 5.923 195.99 0 178.902 0h-50.48c-4.707 0-9.415.436-14.036 1.394-1.22.261-1.134.087-2.18.435C106.016 3.223 100 5.49 94.421 8.45l-16.74 8.798c-19.79 10.454-40.715 18.555-62.25 24.218L1.396 45.125C.61 45.299 0 46.083 0 46.867V79.97c0 10.976 8.806 19.862 19.79 19.862h28.772C51.264 111.94 61.988 121 74.892 121c13.164 0 24.15-9.495 26.503-22.04H279.34c1.046 0 1.83-.784 1.83-1.829s-.784-1.83-1.83-1.83H101.744v-1.393c0-14.984-12.031-27.092-26.94-27.092-14.908 0-26.94 12.108-26.94 27.092 0 .784 0 1.48.087 2.265H19.704c-8.893 0-16.13-7.23-16.13-16.203V62.199h2.529c6.364 0 11.508-4.966 11.508-11.15 0-1.046-.784-1.83-1.83-1.83l-12.206-.087v-.958l12.728-3.31c21.884-5.75 43.07-13.939 63.035-24.567l16.74-8.798c3.835-2.004 7.759-3.659 11.856-4.878l-21.36 24.74c-5.667 6.62-1.046 16.813 7.672 16.813h123.715c1.046 0 1.83-.785 1.83-1.83s-.784-1.83-1.83-1.83H94.333c-5.58 0-8.544-6.533-4.882-10.714L114.3 5.053c4.708-.959 9.416-1.481 14.298-1.481h50.48A69.384 69.384 0 0 1 223.453 19.6l29.818 22.04a31.793 31.793 0 0 0 14.56 6.098l46.381 6.185c19.617 2.178 32.171 19.252 34.874 42.337H331.04c-1.046 0-1.83.784-1.83 1.83 0 1.045.784 1.829 1.83 1.829h20.227c1.133 0 2.005-1.22 1.656-2.352ZM74.892 70.562c12.903 0 23.278 10.453 23.278 23.433 0 12.893-10.463 23.433-23.279 23.433s-23.278-10.453-23.278-23.433c-.087-12.893 10.375-23.433 23.278-23.433Zm-61.117-17.51c-.872 3.223-3.923 5.662-7.672 5.662H3.575v-5.75l10.2.088Z" opacity=".5"/><path id="Shape" d="M179.241 53.677c-1.049 0-1.836.78-1.836 1.82 0 1.039.787 1.819 1.836 1.819h11.715c1.05 0 1.836-.78 1.836-1.82s-.787-1.82-1.836-1.82h-11.715Z" opacity=".5"/><path id="Stroke-144" d="M277.874 94.162c0-14.843 11.925-26.839 26.702-26.839 14.776 0 26.7 11.996 26.7 26.839 0 14.843-12.01 26.838-26.7 26.838-14.777 0-26.702-11.995-26.702-26.838Zm3.63 0c0 12.772 10.37 23.214 23.072 23.214 12.789 0 23.072-10.356 23.072-23.214 0-12.859-10.37-23.214-23.072-23.214-12.79 0-23.072 10.442-23.072 23.214Z" opacity=".5"/></g></g></g></g></svg>